<svg xmlns="http://www.w3.org/2000/svg" width="512" height="512" viewBox="0 0 512 512" fill="none">
  <path d="M256 42.7C140.4 42.7 46.5 136.5 46.5 252.2C46.5 367.8 140.4 461.6 256 461.6C371.6 461.6 465.5 367.8 465.5 252.2C465.5 136.5 371.6 42.7 256 42.7ZM256 121.1C300.7 121.1 336.9 157.3 336.9 202C336.9 221.3 330 239 318.6 253.1C342.1 270.7 357.4 298.4 357.4 329.6C357.4 378.9 317.1 419.2 267.8 419.2C230.5 419.2 198.5 397.6 183.9 366.3L212.2 350.6C221.4 370.5 242.9 383.5 267.8 383.5C297.2 383.5 321.6 359.1 321.6 329.6C321.6 300.2 297.2 275.8 267.8 275.8H244.2L244.2 240H267.8C282.5 240 294.4 228.1 294.4 213.4C294.4 198.7 282.5 186.7 267.8 186.7C253.1 186.7 241.1 198.7 241.1 213.4H198.6C198.6 175.1 225.2 142.9 260.4 134.8L245.5 92.9L281.2 80L301.5 134.8H301.5C301.5 134.8 301.5 134.8 301.5 134.8C323.6 142.9 339.6 160.5 344.8 183L386.2 169.3L398.5 203.2L346 220.9C346 220.8 346 220.8 346 220.7C345.4 214.7 343.7 209 341.2 203.7L323 212.2C324.5 215.6 325.5 219.3 325.7 223.2C325.7 223.3 325.7 223.4 325.8 223.4L312.8 228.2C312.5 223 309.7 218.5 305.9 215.8L286 243.5L243.5 215.8L260 169.3L294.5 156.5L260 143.7L232.3 191L221.8 193.4C219.8 175 214 156.5 201.7 142.1L182.8 157.3C196.3 174.8 201.2 194.9 201.2 215.8L182.8 238.7L154 203.2L172.4 156.5L154 105.8L201.7 87.3L232.3 105.8L217.6 61.1L260 49.3L294.5 64L329 49.3L369.9 64L401.6 101.9L369.9 134.8L401.6 169.3L427.2 203.2L401.6 240L427.2 270.1L401.6 329.6L369.9 354.2L329 380.7L294.5 412.4L260 427.1L217.6 412.4L182.8 380.7L154 354.2L129.4 329.6L111 293L129.4 251.6L154 203.2L129.4 156.5L142.2 119.8L172.4 87.3L201.7 64L232.3 49.3L256 42.7Z" fill="#E63946"/>
  <path d="M257.7 209.2L268 228.2L257.7 240L247.3 228.2L257.7 209.2Z" fill="#E63946"/>
</svg>